<?xml version="1.0" standalone="no"?>
<!DOCTYPE svg PUBLIC "-//W3C//DTD SVG 20010904//EN"
 "http://www.w3.org/TR/2001/REC-SVG-20010904/DTD/svg10.dtd">
<svg version="1.0" xmlns="http://www.w3.org/2000/svg"
 width="260.000000pt" height="260.000000pt" viewBox="0 0 260.000000 260.000000"
 preserveAspectRatio="xMidYMid meet">
<metadata>
Created by potrace 1.14, written by Peter Selinger 2001-2017
</metadata>
<g transform="translate(0.000000,260.000000) scale(0.100000,-0.100000)"
fill="#000000" stroke="none">
<path d="M187 2447 c-30 -10 -52 -60 -37 -85 27 -48 23 -47 192 -52 l163 -5 6
-45 c3 -25 14 -90 23 -145 9 -55 19 -116 22 -135 3 -19 7 -42 9 -50 2 -8 6
-28 9 -45 11 -77 19 -122 22 -140 2 -11 13 -76 25 -144 11 -69 22 -127 23
-130 2 -3 6 -28 10 -56 3 -27 8 -62 11 -78 3 -15 9 -53 15 -85 6 -31 12 -68
15 -82 19 -97 18 -100 -19 -115 -187 -79 -228 -345 -72 -478 20 -17 111 -67
121 -67 35 1 35 1 17 -42 -11 -28 -17 -68 -16 -113 1 -116 63 -209 169 -256
68 -31 171 -31 237 -1 131 61 198 216 151 352 l-18 55 245 -1 c135 -1 248 -2
251 -3 3 0 -2 -25 -12 -53 -64 -184 90 -385 286 -374 190 11 322 201 260 376
-8 23 -15 45 -15 49 0 3 30 6 66 6 59 1 69 4 90 28 19 22 21 32 14 58 -18 62
30 58 -865 59 -761 0 -822 1 -854 18 -53 26 -76 65 -76 125 0 38 6 61 22 83
47 66 10 63 835 63 777 0 781 1 793 41 2 8 7 31 10 50 3 19 7 46 10 60 3 14 7
40 10 58 3 17 7 47 10 65 3 17 7 43 10 57 3 14 7 41 10 60 3 19 7 46 10 60 3
14 7 39 9 55 3 17 8 45 11 63 3 17 7 47 10 65 3 17 10 57 15 87 5 30 12 73 16
95 3 22 9 60 14 85 9 49 -6 92 -35 104 -9 3 -396 6 -861 6 l-844 0 -5 23 c-2
12 -7 38 -9 57 -3 19 -19 114 -36 210 -23 134 -34 179 -50 194 -18 19 -34 20
-209 21 -104 0 -200 -3 -214 -8z"/>
</g>
</svg>
